<svg version="1" xmlns="http://www.w3.org/2000/svg" width="682.667" height="682.667" viewBox="0 0 512.000000 512.000000"><path d="M161.9 50.7c-.1.4-.3 12.3-.4 26.3-.2 14-.3 26.2-.4 27.1-.1 1.5-5 1.7-55.2 1.7-30.2 0-55.3.3-55.7.7-.4.4-.7 65.3-.8 144.2l-.1 143.6-2.4 2.1c-1.4 1.2-4.2 3.5-6.3 5.3l-3.9 3.1v33.9l-.1 33.8h10.9v17l14.7.3 14.7.3.3-8.8.3-8.7H82c2.5 0 4.8-.5 5.2-1 .4-.6.7-15.8.7-33.8l-.1-32.7-5.5-5.1-5.5-5.1V265.2c.1-71.3.1-132 .1-134.7l.1-5.1 42.2.1h42.2V290h5.5c30.5.2 93.8-.2 98.1-.5 12.6-.9 20.3-2.1 32.5-5.1 26-6.5 44.2-16.1 59.7-31.6 22.9-23 30.2-56.7 18.1-84.3-11.9-27.1-37.5-46.8-73.3-56.4-10.1-2.7-19.6-4.3-33.6-5.6-7.4-.7-50.3-1-50.9-.3-.4.4-.9 15.1-.6 18.3.1.6 7.9 1 21.4 1 37.3.1 53.5 2.8 73.7 12.2 36.3 17 51.5 53.6 35.7 85.6-12.6 25.4-40.8 41.8-79.7 46.3-9.8 1.1-79 1.1-79.1-.1 0-.5-.1-45.7-.2-100.2-.1-65.5.1-99.4.8-99.6 1.9-.6 104.9 0 114.5.7 65.6 4.5 114.3 30.6 134.4 72 6.4 13.2 7.8 17.8 10.2 32.5 1.8 10.7.7 27.1-2.7 40.4-5.6 22-16.4 40.3-34.3 58.2-21.8 21.7-48.5 35.9-82.1 43.8-6 1.4-12.6 2.8-14.5 3.1-13.5 2-24.2 2.8-40 3l-18.2.2-7.9-4.6-7.8-4.5h-31.6l-.3 3.8-.3 3.7H197v22.2l4.3-.2c7.7-.3 7.7-.3 7.7 3.5 0 2.1.5 3.6 1.3 3.6.6.1 7.7.3 15.7.4l14.5.2 7.5-4 7.5-4 14-.3c19-.3 37.8-1.5 44.5-2.8 1.4-.3 4.5-.8 7-1.1 2.5-.4 7.7-1.3 11.5-2.1 3.9-.9 7.9-1.7 8.9-1.9 6.8-1.5 21.7-6.3 31-10.1 57.4-23.5 95-67.3 103.2-120.4.4-2.5.8-9.6.8-15.9.3-17.1-2.6-31.6-9.3-47.2-17.9-41.5-56.9-70.7-112.3-83.9-13.2-3.1-15.8-3.6-22.8-4.5-11.9-1.4-13.7-1.7-16-2.2-4-1-154-1.5-154.1-.6z"/></svg>